<svg width="14" height="10" viewBox="0 0 14 10" fill="none" xmlns="http://www.w3.org/2000/svg">
<path d="M4.778 8.26599L1.51217 5.00016C1.35589 4.84394 1.14397 4.75617 0.922999 4.75617C0.702029 4.75617 0.490105 4.84394 0.333832 5.00016C0.177607 5.15643 0.0898438 5.36836 0.0898438 5.58933C0.0898438 5.8103 0.177607 6.02222 0.333832 6.17849L3.59967 9.44432C3.75444 9.59916 3.9382 9.72198 4.14045 9.80578C4.34271 9.88958 4.55949 9.93272 4.77842 9.93272C4.99734 9.93272 5.21412 9.88958 5.41638 9.80578C5.61863 9.72198 5.80239 9.59916 5.95717 9.44432L13.6672 1.73433C13.8234 1.57806 13.9112 1.36614 13.9112 1.14517C13.9112 0.924196 13.8234 0.712273 13.6672 0.556V0.556C13.5109 0.399774 13.299 0.312012 13.078 0.312012C12.857 0.312012 12.6451 0.399774 12.4888 0.556L4.778 8.26599Z" fill="white"/>
</svg>
