<svg width="11" height="11" viewBox="0 0 11 11" fill="none" xmlns="http://www.w3.org/2000/svg">
<path d="M10.4998 0.499848C10.3436 0.343622 10.1317 0.255859 9.91068 0.255859C9.68971 0.255859 9.47779 0.343622 9.32152 0.499848L5.49985 4.32152L1.67818 0.499848C1.52191 0.343622 1.30998 0.255859 1.08901 0.255859C0.868045 0.255859 0.656121 0.343622 0.499848 0.499848C0.343622 0.656121 0.255859 0.868045 0.255859 1.08901C0.255859 1.30998 0.343622 1.52191 0.499848 1.67818L4.32152 5.49985L0.499848 9.32152C0.343622 9.47779 0.255859 9.68971 0.255859 9.91068C0.255859 10.1317 0.343622 10.3436 0.499848 10.4998C0.656121 10.6561 0.868045 10.7438 1.08901 10.7438C1.30998 10.7438 1.52191 10.6561 1.67818 10.4998L5.49985 6.67818L9.32152 10.4998C9.47779 10.6561 9.68971 10.7438 9.91068 10.7438C10.1317 10.7438 10.3436 10.6561 10.4998 10.4998C10.6561 10.3436 10.7438 10.1317 10.7438 9.91068C10.7438 9.68971 10.6561 9.47779 10.4998 9.32152L6.67818 5.49985L10.4998 1.67818C10.6561 1.52191 10.7438 1.30998 10.7438 1.08901C10.7438 0.868045 10.6561 0.656121 10.4998 0.499848Z" fill="#9CA3AF"/>
</svg>
