<svg width="20" height="20" viewBox="0 0 20 20" fill="none" xmlns="http://www.w3.org/2000/svg">
<path d="M9.99875 13.3336C10.3868 13.3343 10.7697 13.2448 11.1171 13.0719L12.7838 12.2386C13.6332 11.8168 14.1691 10.9487 14.1654 10.0003V7.52776C14.1684 6.58015 13.6326 5.71319 12.7838 5.29194L11.1171 4.45862C10.4129 4.10862 9.58543 4.10862 8.88125 4.45862L7.21458 5.29194C6.36543 5.71296 5.8293 6.57999 5.83207 7.52776V10.0003C5.82903 10.9481 6.36477 11.8154 7.21375 12.2369L8.88043 13.0703C9.2277 13.2437 9.61059 13.3338 9.99875 13.3336ZM7.49875 10.0003V7.52776C7.50008 7.44276 7.51442 7.35843 7.54125 7.27776L9.35793 8.18608C9.76137 8.38772 10.2362 8.38772 10.6396 8.18608L12.4563 7.27776C12.4831 7.35843 12.4975 7.44276 12.4988 7.52776V10.0003C12.5001 10.3164 12.3213 10.6058 12.038 10.7461L10.3713 11.5794C10.1363 11.6957 9.86047 11.6957 9.62547 11.5794L7.95879 10.7461C7.67571 10.6056 7.49727 10.3163 7.49875 10.0003ZM15.8321 18.3336H13.5746L16.4804 15.6486C20.0603 12.0688 20.0604 6.26483 16.4806 2.68495C12.9008 -0.894932 7.09688 -0.894971 3.517 2.68476C-0.0628857 6.26448 -0.0629641 12.0685 3.5168 15.6484C3.52465 15.6562 6.42293 18.3336 6.42293 18.3336H4.16543C3.7052 18.3336 3.33211 18.7067 3.33211 19.1669C3.33211 19.6271 3.7052 20.0002 4.16543 20.0002H15.8321C16.2923 20.0002 16.6654 19.6271 16.6654 19.1669C16.6654 18.7067 16.2923 18.3336 15.8321 18.3336ZM4.69543 3.86358C7.61793 0.927959 12.3669 0.917334 15.3025 3.83983C18.2381 6.76233 18.2488 11.5113 15.3263 14.4469L12.0054 17.5144C10.872 18.5827 9.10051 18.5765 7.97461 17.5002L4.69543 14.4702C1.77102 11.5394 1.77106 6.79444 4.69543 3.86358Z" fill="#6B7280"/>
</svg>
