<svg width="180" height="38" viewBox="0 0 180 38" fill="none" xmlns="http://www.w3.org/2000/svg">
<path d="M35.9776 0.000175476H18.8787C8.4523 0.000175476 0 8.50683 0 19.0003C0 23.791 1.76268 28.1671 4.66984 31.5093L35.9776 0.000175476Z" fill="#64CCD8"/>
<path d="M7.09957 19.0003C7.09957 8.50683 15.5519 0.000175476 25.9783 0.000175476H18.8787C8.4523 0.000175476 0 8.50683 0 19.0003C0 23.791 1.76268 28.1671 4.66984 31.5093L8.94865 27.2032C7.76504 24.7196 7.09957 21.9388 7.09957 19.0003Z" fill="#4BC2D5"/>
<path d="M21.3235 18.3304H26.5929C26.7852 17.6028 27.1607 16.9341 27.7038 16.3875C28.5158 15.5703 29.5957 15.1202 30.7444 15.1202C31.8931 15.1202 32.9727 15.5703 33.7849 16.3875C35.4615 18.0751 35.4615 20.8207 33.7852 22.5083H33.7849C32.9727 23.3255 31.8931 23.7759 30.7444 23.7759C29.5957 23.7759 28.5158 23.3255 27.7035 22.5083C27.2358 22.0373 26.8936 21.4751 26.6838 20.8638H18.8064L12.424 27.2872H17.5828C17.7856 26.6172 18.1498 26.0029 18.6559 25.4936C19.4682 24.6761 20.548 24.226 21.6965 24.226C22.8451 24.226 23.925 24.6761 24.7373 25.4936C25.5496 26.3111 25.9965 27.3979 25.9965 28.554C25.9965 29.7098 25.5493 30.7966 24.7373 31.6141C23.925 32.4316 22.8451 32.8817 21.6965 32.8817C20.548 32.8817 19.4682 32.4316 18.6559 31.6141C18.1498 31.1048 17.7856 30.4908 17.5828 29.8206H9.90682L6.44922 33.3004C9.77 36.2263 14.1181 38 18.8783 38C29.3047 38 37.757 29.4936 37.757 19.0002V1.79129L21.3235 18.3304Z" fill="#C3E120"/>
<path d="M34.9918 20.0812C34.8621 20.9698 34.4631 21.8259 33.7853 22.5081C32.9733 23.3256 31.8932 23.7757 30.7445 23.7757C29.5958 23.7757 28.5159 23.3256 27.7039 22.5081C27.2359 22.0371 26.8937 21.4752 26.6839 20.8636H18.8065L17.5352 22.1433H18.7936L18.8065 22.1304H26.6839C26.8937 22.7417 27.2359 23.3039 27.7039 23.7749C28.5159 24.5921 29.5958 25.0425 30.7445 25.0425C31.8932 25.0425 32.9731 24.5921 33.7851 23.7749C34.7835 22.7697 35.1827 21.3898 34.9918 20.0812Z" fill="#A4CF30"/>
<path d="M25.9462 29.1872C25.8134 30.1022 25.399 30.9482 24.7374 31.614C23.9254 32.4315 22.8453 32.8816 21.6969 32.8816C20.5482 32.8816 19.4683 32.4315 18.656 31.614C18.15 31.1047 17.786 30.4907 17.583 29.8204H9.90696L8.60938 31.1266H9.86783L9.90696 31.0873H17.583C17.786 31.7573 18.15 32.3715 18.656 32.8808C19.4683 33.6981 20.5482 34.1484 21.6969 34.1484C22.8453 34.1484 23.9254 33.6981 24.7374 32.8808C25.5494 32.0633 25.9969 30.9765 25.9969 29.8204C25.9969 29.6061 25.9764 29.3954 25.9462 29.1872Z" fill="#A4CF30"/>
<path d="M22.9578 29.8227C23.2947 29.4836 23.4801 29.033 23.4801 28.5538C23.4801 28.0746 23.2947 27.624 22.9578 27.2849C22.6211 26.946 22.1734 26.7594 21.6972 26.7594C21.2208 26.7594 20.7731 26.946 20.4364 27.2849C20.0995 27.624 19.9141 28.0746 19.9141 28.5538C19.9141 29.033 20.0995 29.4836 20.4361 29.8227C20.7731 30.1615 21.2208 30.3481 21.6972 30.3481C22.1734 30.3481 22.6211 30.1615 22.9578 29.8227Z" fill="#C3E120"/>
<path d="M32.0047 20.717C32.6995 20.0174 32.6995 18.8787 32.0044 18.1791C31.6677 17.8403 31.22 17.6537 30.7438 17.6537C30.2675 17.6537 29.8197 17.8403 29.483 18.1791C29.1461 18.5182 28.9609 18.9689 28.9609 19.4483C28.9609 19.9275 29.1461 20.3781 29.483 20.717C29.8197 21.0561 30.2675 21.2427 30.7438 21.2427C31.22 21.2427 31.6677 21.0561 32.0047 20.717Z" fill="#C3E120"/>
<path d="M49.416 27.9146V10.0856H61.5381V11.7666H51.1876V18.5415H61.1584V20.2225H51.1876V27.9146H49.416Z" fill="#333333"/>
<path d="M65.2852 10.0856H67.0568V27.9146H65.2852V10.0856Z" fill="#333333"/>
<path d="M84.5426 24.5523L84.4412 18.6435V10.0856H86.2128V27.9146H85.15L73.686 13.575L73.7367 18.8473V27.9146H71.9648V10.0856H73.0786L84.5426 24.5523Z" fill="#333333"/>
<path d="M92.8947 26.2592H97.3741C102.309 26.2592 104.536 22.3877 104.46 18.7963C104.384 15.3323 102.157 11.7666 97.3741 11.7666H92.8947V26.2592ZM97.3741 10.0856C103.372 10.0856 106.257 14.4154 106.257 18.8217C106.257 23.3299 103.574 27.9146 97.3741 27.9146H91.123V10.0856H97.3741Z" fill="#333333"/>
<path d="M114.357 23.6608H116.989C120.177 23.6608 121.291 21.2668 121.291 18.8217C121.291 16.3766 120.051 14.2881 116.989 14.2881H114.357V23.6608ZM116.989 10.0856C123.24 10.0856 126.251 13.9571 126.251 18.8727C126.251 23.788 123.341 27.9146 116.989 27.9146H109.396V10.0856H116.989Z" fill="#333333"/>
<path d="M139.108 10.0856H134.046L126.1 27.9146H131.414L136.551 15.0775L141.664 27.9146H147.029L139.108 10.0856Z" fill="#333333"/>
<path d="M150.573 14.2373H145.41V10.0856H160.746V14.2373H155.558V27.9146H150.573V14.2373Z" fill="#333333"/>
<path d="M172.078 10.0856H167.017L159.07 27.9146H164.385L169.522 15.0775L174.634 27.9146H179.999L172.078 10.0856Z" fill="#333333"/>
</svg>
