<svg width="20" height="20" viewBox="0 0 20 20" fill="none" xmlns="http://www.w3.org/2000/svg">
<path d="M10.832 0.833199C10.832 0.612186 10.9198 0.400224 11.0761 0.243944C11.2324 0.0876633 11.4443 -0.000134037 11.6653 -0.000134037C13.8747 0.00229229 15.9929 0.881045 17.5552 2.44332C19.1175 4.0056 19.9962 6.12381 19.9987 8.3332C19.9987 8.55421 19.9109 8.76618 19.7546 8.92246C19.5983 9.07874 19.3863 9.16653 19.1653 9.16653C18.9443 9.16653 18.7324 9.07874 18.5761 8.92246C18.4198 8.76618 18.332 8.55421 18.332 8.3332C18.33 6.5657 17.627 4.87116 16.3772 3.62135C15.1274 2.37153 13.4328 1.66852 11.6653 1.66653C11.4443 1.66653 11.2324 1.57874 11.0761 1.42246C10.9198 1.26617 10.832 1.05421 10.832 0.833199ZM11.6653 4.99987C12.5494 4.99987 13.3972 5.35106 14.0224 5.97618C14.6475 6.6013 14.9987 7.44915 14.9987 8.3332C14.9987 8.55421 15.0865 8.76618 15.2427 8.92246C15.399 9.07874 15.611 9.16653 15.832 9.16653C16.053 9.16653 16.265 9.07874 16.4213 8.92246C16.5775 8.76618 16.6653 8.55421 16.6653 8.3332C16.664 7.00752 16.1368 5.73652 15.1994 4.79913C14.262 3.86173 12.991 3.33452 11.6653 3.3332C11.4443 3.3332 11.2324 3.421 11.0761 3.57728C10.9198 3.73356 10.832 3.94552 10.832 4.16653C10.832 4.38755 10.9198 4.59951 11.0761 4.75579C11.2324 4.91207 11.4443 4.99987 11.6653 4.99987ZM19.2428 13.949C19.7258 14.4333 19.9969 15.0893 19.9969 15.7732C19.9969 16.4571 19.7258 17.1131 19.2428 17.5974L18.4845 18.4715C11.6595 25.0057 -4.94881 8.40153 1.48452 1.55487L2.44285 0.721533C2.92766 0.252097 3.57779 -0.00759314 4.2526 -0.001355C4.92741 0.00488313 5.57263 0.276548 6.04868 0.754866C6.07451 0.780699 7.61868 2.78653 7.61868 2.78653C8.07687 3.26789 8.33193 3.90731 8.33084 4.57187C8.32976 5.23643 8.07261 5.87501 7.61284 6.35487L6.64784 7.5682C7.18188 8.86579 7.96706 10.0451 8.95827 11.0383C9.94947 12.0315 11.1272 12.819 12.4237 13.3557L13.6445 12.3849C14.1244 11.9255 14.7629 11.6686 15.4272 11.6677C16.0916 11.6668 16.7308 11.9218 17.212 12.3799C17.212 12.3799 19.217 13.9232 19.2428 13.949ZM18.0962 15.1607C18.0962 15.1607 16.102 13.6265 16.0762 13.6007C15.9045 13.4305 15.6725 13.335 15.4307 13.335C15.189 13.335 14.957 13.4305 14.7853 13.6007C14.7628 13.624 13.082 14.9632 13.082 14.9632C12.9687 15.0534 12.8339 15.1125 12.6909 15.1347C12.5478 15.1569 12.4014 15.1414 12.2662 15.0899C10.5866 14.4645 9.06096 13.4855 7.79271 12.2191C6.52446 10.9527 5.54318 9.42856 4.91535 7.74987C4.85968 7.61275 4.84153 7.46327 4.86277 7.31682C4.884 7.17036 4.94386 7.0322 5.03618 6.91653C5.03618 6.91653 6.37534 5.23487 6.39784 5.2132C6.56807 5.04152 6.66358 4.80955 6.66358 4.56778C6.66358 4.32602 6.56807 4.09404 6.39784 3.92237C6.37201 3.89737 4.83785 1.90153 4.83785 1.90153C4.6636 1.74529 4.43618 1.66161 4.20222 1.66766C3.96826 1.6737 3.74547 1.769 3.57951 1.93403L2.62118 2.76737C-2.08048 8.4207 12.312 22.0149 17.2662 17.3332L18.0253 16.4582C18.2032 16.2934 18.3101 16.0659 18.3233 15.8238C18.3365 15.5817 18.2551 15.3439 18.0962 15.1607Z" fill="#6B7280"/>
</svg>
