<svg width="24" height="20" viewBox="0 0 24 20" fill="none" xmlns="http://www.w3.org/2000/svg">
<path d="M21.543 5.1041C21.557 5.3151 21.557 5.5271 21.557 5.7401C21.557 12.2471 16.603 19.7501 7.547 19.7501V19.7461C4.872 19.7501 2.252 18.9841 0 17.5391C0.389 17.5861 0.78 17.6091 1.172 17.6101C3.39 17.6121 5.544 16.8681 7.287 15.4981C5.18 15.4581 3.332 14.0841 2.687 12.0781C3.425 12.2201 4.185 12.1911 4.91 11.9941C2.612 11.5301 0.96 9.5111 0.96 7.1671C0.96 7.1461 0.96 7.1251 0.96 7.1051C1.645 7.4871 2.411 7.6981 3.195 7.7211C1.031 6.2761 0.363 3.3981 1.67 1.1481C4.17 4.2241 7.859 6.0941 11.818 6.2931C11.421 4.5831 11.964 2.7911 13.242 1.5881C15.225 -0.276903 18.344 -0.180903 20.209 1.8021C21.312 1.5851 22.369 1.1801 23.336 0.607097C22.968 1.7471 22.199 2.7151 21.171 3.3311C22.148 3.2141 23.101 2.9531 24 2.5551C23.339 3.5441 22.507 4.4071 21.543 5.1041Z" fill="white"/>
</svg>
